<svg xmlns="http://www.w3.org/2000/svg" viewBox="0 0 37.31 53.24"><defs><style>.cls-1{fill:#bbbcbc;}.cls-2{fill:#cb2c30;}</style></defs><g id="Layer_2" data-name="Layer 2"><g id="Layer_1-2" data-name="Layer 1"><g id="Shredding"><path class="cls-1" d="M6.25,0H30.65a3,3,0,0,1,3,3v9.66a0,0,0,0,1,0,0H3.25a0,0,0,0,1,0,0V3A3,3,0,0,1,6.25,0Z"></path><rect class="cls-1" x="3.25" y="27.57" width="3.38" height="16.05" rx="0.6"></rect><rect class="cls-1" x="8.66" y="27.57" width="3.38" height="20.13" rx="0.6"></rect><rect class="cls-1" x="14.06" y="27.57" width="3.38" height="25.67" rx="0.6"></rect><rect class="cls-1" x="19.46" y="27.57" width="3.38" height="12.84" rx="0.6"></rect><rect class="cls-1" x="24.87" y="27.57" width="3.38" height="18.37" rx="0.6"></rect><rect class="cls-1" x="30.27" y="27.57" width="3.38" height="23.77" rx="0.6"></rect><path class="cls-2" d="M37.31,25.22H0V11.89H37.31ZM1.5,23.72H35.81V13.39H1.5Z"></path></g></g></g></svg>